<?xml version="1.0" encoding="utf-8"?>
<!-- Generator: Adobe Illustrator 16.0.0, SVG Export Plug-In . SVG Version: 6.00 Build 0)  -->
<!DOCTYPE svg PUBLIC "-//W3C//DTD SVG 1.1//EN" "http://www.w3.org/Graphics/SVG/1.1/DTD/svg11.dtd">
<svg version="1.1" id="Layer_1" xmlns="http://www.w3.org/2000/svg" xmlns:xlink="http://www.w3.org/1999/xlink" x="0px" y="0px"
	 width="50px" height="50px" viewBox="0 0 50 50" enable-background="new 0 0 50 50" xml:space="preserve">
<circle fill="#717171" cx="25" cy="25" r="25"/>
<g>
	<path fill="#FFFFFF" d="M14.322,30.556h0.975V25.1h-1.45v1.236h-1.272v-2.401h6.787v2.401H18.09V25.1h-1.45v5.456h0.975v1.2h-3.293
		V30.556z"/>
	<path fill="#FFFFFF" d="M20.542,27.845c0-2.293,1.664-4.053,4.042-4.053c2.366,0,3.981,1.771,3.981,4.053
		c0,2.295-1.664,4.054-4.041,4.054C22.158,31.898,20.542,30.127,20.542,27.845z M27.174,27.845c0-1.628-1.105-2.805-2.615-2.805
		c-1.521,0-2.627,1.165-2.627,2.805c0,1.629,1.105,2.806,2.627,2.806C26.068,30.65,27.174,29.485,27.174,27.845z"/>
	<path fill="#FFFFFF" d="M30.148,30.556h0.893v-5.42h-0.893v-1.201h3.15c1.676,0,2.961,0.963,2.961,2.556
		c0,1.795-1.273,2.675-3.115,2.675c-0.369,0-0.594,0-0.76-0.013v1.403h0.975v1.2h-3.211V30.556z M34.869,26.49
		c0-0.82-0.678-1.355-1.641-1.355h-0.844v2.829c0.143,0.012,0.332,0.024,0.879,0.024C34.273,27.988,34.869,27.417,34.869,26.49z"/>
</g>
<polygon fill="#FFFFFF" points="28,17 28,16 27,16 27,15 26,15 26,14 25,14 25,13 24,13 24,14 23,14 23,15 22,15 22,16 21,16 21,17 
	20,17 20,18 21,18 28,18 29,18 29,17 "/>
</svg>
