<?xml version="1.0" encoding="utf-8"?>
<!-- Generator: Adobe Illustrator 16.0.0, SVG Export Plug-In . SVG Version: 6.00 Build 0)  -->
<!DOCTYPE svg PUBLIC "-//W3C//DTD SVG 1.1//EN" "http://www.w3.org/Graphics/SVG/1.1/DTD/svg11.dtd">
<svg version="1.1" id="Layer_1" xmlns="http://www.w3.org/2000/svg" xmlns:xlink="http://www.w3.org/1999/xlink" x="0px" y="0px"
	 width="40px" height="40px" viewBox="0 0 40 40" enable-background="new 0 0 40 40" xml:space="preserve">
<path fill="#4A2516" d="M40.031,20.01c0,11.05-8.953,20-20,20c-11.045,0-20-8.95-20-20c0-11.045,8.955-20,20-20
	C31.078,0.01,40.031,8.965,40.031,20.01z"/>
<path id="facebook-icon_1_" fill="#FFFFFF" d="M17.7,17.395h-1.583v2.584H17.7v7.588h3.043v-7.621h2.123l0.228-2.551h-2.351
	c0,0,0-0.955,0-1.453c0-0.604,0.123-0.841,0.703-0.841c0.468,0,1.647,0,1.647,0v-2.647c0,0-1.737,0-2.107,0
	c-2.265,0-3.286,0.997-3.286,2.906C17.7,17.022,17.7,17.395,17.7,17.395z"/>
</svg>
