<?xml version="1.0" encoding="utf-8"?>
<!-- Generator: Adobe Illustrator 16.0.0, SVG Export Plug-In . SVG Version: 6.00 Build 0)  -->
<!DOCTYPE svg PUBLIC "-//W3C//DTD SVG 1.1//EN" "http://www.w3.org/Graphics/SVG/1.1/DTD/svg11.dtd">
<svg version="1.1" id="Layer_1" xmlns="http://www.w3.org/2000/svg" xmlns:xlink="http://www.w3.org/1999/xlink" x="0px" y="0px"
	 width="40px" height="40px" viewBox="0 0 40 40" enable-background="new 0 0 40 40" xml:space="preserve">
<path fill="#4A2516" d="M40.031,20.009c0,11.05-8.953,20-20,20c-11.044,0-20-8.95-20-20c0-11.044,8.956-20,20-20
	C31.078,0.01,40.031,8.965,40.031,20.009z"/>
<path id="twitter-icon" fill="#FFFFFF" d="M29.11,15.372c-0.626,0.278-1.3,0.466-2.006,0.55c0.722-0.432,1.275-1.116,1.535-1.932
	c-0.674,0.4-1.422,0.691-2.217,0.847c-0.637-0.678-1.545-1.102-2.549-1.102c-2.254,0-3.911,2.103-3.401,4.287
	c-2.902-0.145-5.475-1.535-7.196-3.648c-0.916,1.569-0.476,3.623,1.079,4.662c-0.57-0.018-1.11-0.176-1.581-0.437
	c-0.038,1.617,1.121,3.13,2.801,3.467c-0.491,0.134-1.03,0.165-1.577,0.061c0.445,1.388,1.734,2.396,3.262,2.425
	c-1.468,1.15-3.316,1.664-5.169,1.446c1.546,0.99,3.381,1.568,5.353,1.568c6.482,0,10.146-5.477,9.924-10.386
	C28.051,16.688,28.643,16.073,29.11,15.372z"/>
</svg>
