<?xml version="1.0" encoding="utf-8"?>
<!-- Generator: Adobe Illustrator 16.0.0, SVG Export Plug-In . SVG Version: 6.00 Build 0)  -->
<!DOCTYPE svg PUBLIC "-//W3C//DTD SVG 1.1//EN" "http://www.w3.org/Graphics/SVG/1.1/DTD/svg11.dtd">
<svg version="1.1" id="Layer_1" xmlns="http://www.w3.org/2000/svg" xmlns:xlink="http://www.w3.org/1999/xlink" x="0px" y="0px"
	 width="40px" height="40px" viewBox="0 0 40 40" enable-background="new 0 0 40 40" xml:space="preserve">
<path fill="#4A2516" d="M40.031,20.01c0,11.05-8.953,20-20,20c-11.044,0-20-8.95-20-20c0-11.045,8.956-20,20-20
	C31.078,0.01,40.031,8.965,40.031,20.01z"/>
<path id="instagram-6-icon" fill="#FFFFFF" d="M26.644,19.431h-1.333c0.096,0.378,0.152,0.771,0.152,1.181
	c0,2.604-2.109,4.715-4.715,4.715c-2.605,0-4.718-2.11-4.718-4.715c0-0.409,0.059-0.803,0.155-1.181h-1.334v6.483
	c0,0.327,0.264,0.593,0.59,0.593h10.613c0.325,0,0.59-0.266,0.59-0.593V19.431L26.644,19.431z M26.644,15.304
	c0-0.326-0.265-0.591-0.59-0.591h-1.769c-0.327,0-0.59,0.265-0.59,0.591v1.769c0,0.326,0.263,0.591,0.59,0.591h1.769
	c0.325,0,0.59-0.265,0.59-0.591V15.304z M20.748,17.663c-1.629,0-2.948,1.319-2.948,2.948s1.319,2.946,2.948,2.946
	s2.947-1.317,2.947-2.946S22.377,17.663,20.748,17.663 M26.644,28.274H14.851c-0.976,0-1.768-0.792-1.768-1.768V14.713
	c0-0.976,0.792-1.768,1.768-1.768h11.793c0.977,0,1.769,0.792,1.769,1.768v11.794C28.412,27.482,27.62,28.274,26.644,28.274"/>
</svg>
