<?xml version="1.0" encoding="utf-8"?>
<!-- Generator: Adobe Illustrator 16.0.0, SVG Export Plug-In . SVG Version: 6.00 Build 0)  -->
<!DOCTYPE svg PUBLIC "-//W3C//DTD SVG 1.1//EN" "http://www.w3.org/Graphics/SVG/1.1/DTD/svg11.dtd">
<svg version="1.1" id="Layer_1" xmlns="http://www.w3.org/2000/svg" xmlns:xlink="http://www.w3.org/1999/xlink" x="0px" y="0px"
	 width="20px" height="20px" viewBox="0 0 20 20" enable-background="new 0 0 20 20" xml:space="preserve">
<path fill="#FFFFFF" d="M8.218,16H7.782C3.491,16,0,12.509,0,8.218V7.782C0,3.491,3.491,0,7.782,0h0.437C12.509,0,16,3.491,16,7.782
	v0.437C16,12.509,12.509,16,8.218,16z M7.782,1C4.042,1,1,4.042,1,7.782v0.437C1,11.958,4.042,15,7.782,15h0.437
	C11.958,15,15,11.958,15,8.218V7.782C15,4.042,11.958,1,8.218,1H7.782z"/>
<polyline fill="#FFFFFF" points="20,20 20,19.255 13.895,12.7 13.078,13.113 13.213,13.446 19.313,20 "/>
</svg>
