<?xml version="1.0" encoding="utf-8"?>
<!-- Generator: Adobe Illustrator 16.0.0, SVG Export Plug-In . SVG Version: 6.00 Build 0)  -->
<!DOCTYPE svg PUBLIC "-//W3C//DTD SVG 1.1//EN" "http://www.w3.org/Graphics/SVG/1.1/DTD/svg11.dtd">
<svg version="1.1" id="Layer_1" xmlns="http://www.w3.org/2000/svg" xmlns:xlink="http://www.w3.org/1999/xlink" x="0px" y="0px"
	 width="40px" height="40px" viewBox="0 0 40 40" enable-background="new 0 0 40 40" xml:space="preserve">
<path fill="#4A2516" d="M40.031,20.009c0,11.05-8.953,20-20,20c-11.044,0-20-8.95-20-20c0-11.044,8.956-20,20-20
	C31.078,0.01,40.031,8.965,40.031,20.009z"/>
<g>
	<path fill="#FFFFFF" d="M13.293,18.153c0,0-0.681,0-1.299,0.602v-2.423h-1.528v6.367h1.543v-0.5c0,0,0.365,0.657,1.284,0.657
		c0,0,2.154-0.079,2.154-2.375C15.447,20.481,15.369,18.153,13.293,18.153z M12.957,21.513c-0.543,0-0.982-0.439-0.982-0.981
		s0.439-0.982,0.982-0.982c0.542,0,0.981,0.44,0.981,0.982S13.499,21.513,12.957,21.513z"/>
	<path fill="#FFFFFF" d="M15.938,16.188v1.473c0,0,0.698-0.031,0.698,1.268v3.77h1.473v-4.12
		C18.108,18.58,18.171,16.188,15.938,16.188z"/>
	<path fill="#FFFFFF" d="M21.71,18.172c0,0-2.524,0-2.524,2.359c0,0-0.082,2.325,2.524,2.325c0,0,2.583-0.003,2.583-2.325
		C24.293,20.531,24.378,18.172,21.71,18.172z M21.711,21.513c-0.543,0-0.982-0.439-0.982-0.981s0.439-0.982,0.982-0.982
		c0.541,0,0.981,0.44,0.981,0.982S22.252,21.513,21.711,21.513z"/>
	<path fill="#FFFFFF" d="M28.512,18.327v0.428c0,0-0.439-0.583-1.282-0.583c0,0-2.164-0.091-2.164,2.342
		c0,0-0.023,2.267,2.103,2.267c0,0,0.868,0.037,1.344-0.582v0.356c0,0,0.105,1.116-0.975,1.116h-0.369v1.354h0.596
		c0,0,2.232,0.024,2.232-2.387v-4.313H28.512z M27.598,21.513c-0.543,0-0.981-0.439-0.981-0.981s0.438-0.982,0.981-0.982
		s0.982,0.44,0.982,0.982S28.141,21.513,27.598,21.513z"/>
</g>
</svg>
